<svg width="32" height="32" viewBox="0 0 32 32" fill="none" xmlns="http://www.w3.org/2000/svg">
<path d="M17.6451 0.00196857C18.8127 -0.00251164 19.9802 0.00922255 21.1474 0.0371675L21.4578 0.0483671C21.8162 0.0611666 22.1698 0.077166 22.597 0.0963654C24.2993 0.176363 25.4609 0.445154 26.48 0.84034C27.536 1.24673 28.4256 1.79711 29.3151 2.68668C30.1285 3.48602 30.758 4.45293 31.1599 5.52018C31.5551 6.53935 31.8238 7.70251 31.9038 9.40485C31.923 9.83043 31.939 10.1856 31.9518 10.544L31.9614 10.8544C31.9899 12.0211 32.0021 13.1881 31.9982 14.3551L31.9998 15.5486V17.6446C32.0038 18.8121 31.9915 19.9797 31.963 21.1469L31.9534 21.4572C31.9406 21.8156 31.9246 22.1692 31.9054 22.5964C31.8254 24.2987 31.5535 25.4603 31.1599 26.4795C30.7593 27.5479 30.1297 28.5156 29.3151 29.3146C28.5151 30.1279 27.5477 30.7573 26.48 31.1593C25.4609 31.5545 24.2993 31.8233 22.597 31.9033C22.1698 31.9225 21.8162 31.9385 21.4578 31.9513L21.1474 31.9609C19.9802 31.9893 18.8127 32.0016 17.6451 31.9977L16.4516 31.9993H14.3572C13.1897 32.0032 12.0222 31.991 10.855 31.9625L10.5446 31.9529C10.1648 31.9391 9.78503 31.9231 9.4054 31.9049C7.70306 31.8249 6.5415 31.5529 5.52074 31.1593C4.45307 30.7583 3.48598 30.1287 2.68723 29.3146C1.87293 28.5151 1.24284 27.5475 0.840895 26.4795C0.445708 25.4603 0.176917 24.2987 0.0969198 22.5964C0.0791011 22.2168 0.0631015 21.837 0.0489215 21.4572L0.040922 21.1469C0.0114247 19.9797 -0.00190961 18.8121 0.00092317 17.6446V14.3551C-0.00354222 13.1881 0.00819196 12.0211 0.0361221 10.8544L0.0473217 10.544C0.0601212 10.1856 0.0761206 9.83043 0.09532 9.40485C0.175317 7.70091 0.444108 6.54095 0.839295 5.52018C1.24148 4.45241 1.8728 3.48576 2.68883 2.68828C3.48704 1.87351 4.45351 1.24284 5.52074 0.84034C6.5415 0.445154 7.70146 0.176363 9.4054 0.0963654L10.5446 0.0483671L10.855 0.0403675C12.0216 0.010885 13.1886 -0.00244928 14.3556 0.000368736L17.6451 0.00196857ZM16.0004 8.0017C14.9404 7.98671 13.8881 8.18253 12.9044 8.57779C11.9208 8.97304 11.0256 9.55985 10.2707 10.3041C9.51587 11.0484 8.91646 11.9352 8.50733 12.9132C8.09821 13.8911 7.88752 14.9406 7.88752 16.0006C7.88752 17.0607 8.09821 18.1102 8.50733 19.0881C8.91646 20.066 9.51587 20.9529 10.2707 21.6971C11.0256 22.4414 11.9208 23.0282 12.9044 23.4235C13.8881 23.8187 14.9404 24.0145 16.0004 23.9996C18.122 23.9996 20.1568 23.1567 21.657 21.6565C23.1573 20.1562 24.0001 18.1215 24.0001 15.9998C24.0001 13.8782 23.1573 11.8434 21.657 10.3432C20.1568 8.84292 18.122 8.0017 16.0004 8.0017ZM16.0004 11.2016C16.638 11.1898 17.2715 11.3053 17.864 11.5411C18.4565 11.777 18.996 12.1285 19.4511 12.5752C19.9062 13.0219 20.2677 13.5548 20.5145 14.1428C20.7614 14.7308 20.8885 15.3621 20.8886 15.9998C20.8887 16.6375 20.7618 17.2688 20.5152 17.8569C20.2685 18.445 19.9072 18.978 19.4522 19.4249C18.9973 19.8717 18.4579 20.2235 17.8655 20.4595C17.2731 20.6956 16.6396 20.8112 16.002 20.7997C14.729 20.7997 13.5081 20.294 12.608 19.3938C11.7078 18.4937 11.2021 17.2728 11.2021 15.9998C11.2021 14.7268 11.7078 13.506 12.608 12.6058C13.5081 11.7057 14.729 11.2 16.002 11.2L16.0004 11.2016ZM24.4001 5.60178C23.8839 5.62244 23.3958 5.84201 23.0379 6.21451C22.68 6.58701 22.4801 7.08354 22.4801 7.60011C22.4801 8.11668 22.68 8.61321 23.0379 8.98571C23.3958 9.35821 23.8839 9.57778 24.4001 9.59844C24.9305 9.59844 25.4392 9.38774 25.8143 9.01268C26.1893 8.63762 26.4 8.12893 26.4 7.59851C26.4 7.0681 26.1893 6.55941 25.8143 6.18435C25.4392 5.80929 24.9305 5.59858 24.4001 5.59858V5.60178Z" fill="white"/>
</svg>
