<svg width="100" height="101" viewBox="0 0 100 101" fill="none" xmlns="http://www.w3.org/2000/svg">
<path d="M85.2497 14.8466C80.6658 10.2163 75.2057 6.545 69.188 4.04693C63.1703 1.54885 56.7154 0.273986 50.1998 0.296685C22.8999 0.296685 0.65 22.5466 0.65 49.8465C0.65 58.5965 2.94999 67.0965 7.24998 74.5965L0.25 100.296L26.4999 93.3964C33.7499 97.3464 41.8999 99.4464 50.1998 99.4464C77.4998 99.4464 99.7497 77.1965 99.7497 49.8965C99.7497 36.6466 94.5997 24.1966 85.2497 14.8466ZM50.1998 91.0464C42.7999 91.0464 35.5499 89.0464 29.1999 85.2964L27.6999 84.3964L12.1 88.4964L16.25 73.2965L15.25 71.7465C11.1387 65.1813 8.95567 57.5927 8.94997 49.8465C8.94997 27.1466 27.4499 8.64666 50.1498 8.64666C61.1498 8.64666 71.4998 12.9466 79.2498 20.7466C83.0872 24.5664 86.1282 29.1099 88.1967 34.1137C90.2652 39.1175 91.3199 44.4821 91.2997 49.8965C91.3997 72.5965 72.8998 91.0464 50.1998 91.0464ZM72.7998 60.2465C71.5498 59.6465 65.4498 56.6465 64.3498 56.1965C63.1998 55.7965 62.3998 55.5965 61.5498 56.7965C60.6998 58.0465 58.3498 60.8465 57.6498 61.6465C56.9498 62.4965 56.1998 62.5965 54.9498 61.9465C53.6998 61.3465 49.6999 59.9965 44.9999 55.7965C41.2999 52.4965 38.8499 48.4465 38.0999 47.1965C37.3999 45.9465 37.9999 45.2966 38.6499 44.6466C39.1999 44.0966 39.8999 43.1966 40.4999 42.4966C41.0999 41.7966 41.3499 41.2466 41.7499 40.4466C42.1499 39.5966 41.9499 38.8966 41.6499 38.2966C41.3499 37.6966 38.8499 31.5966 37.8499 29.0966C36.8499 26.6966 35.7999 26.9966 35.0499 26.9466H32.6499C31.7999 26.9466 30.4999 27.2466 29.3499 28.4966C28.2499 29.7466 25.0499 32.7466 25.0499 38.8466C25.0499 44.9466 29.4999 50.8465 30.0999 51.6465C30.6999 52.4965 38.8499 64.9965 51.2498 70.3465C54.1998 71.6465 56.4998 72.3965 58.2998 72.9465C61.2498 73.8965 63.9498 73.7465 66.0998 73.4465C68.4998 73.0965 73.4498 70.4465 74.4498 67.5465C75.4998 64.6465 75.4998 62.1965 75.1498 61.6465C74.7998 61.0965 74.0498 60.8465 72.7998 60.2465Z" fill="white"/>
</svg>
